# xmcd
#
# Track frame offsets: 
#        150
#        13283
#        35933
#        48008
#        60375
#        72820
#        84300
#        100135
#        113675
#        127640
#        140783
#        152373
#        161778
#        173523
#
# Disc length: 2460 seconds
#
# Revision: 4
# Processed by: cddbd v1.5.2PL0 Copyright (c) Steve Scherf et al.
# Submitted via: ExactAudioCopyFreeDBPlugin 1.0
#
DISCID=aa099a0e
DTITLE=Various Artist - Blues Breakers! [CD 1)
DYEAR=1994
DGENRE=Blues
TTITLE0=Muddy Waters - Mannish Boy
TTITLE1=B.B. King - Every Day (I Have The Blues)
TTITLE2=John Lee Hooker -  I'm In The Mood
TTITLE3=Elmore James - The Sky Is Crying
TTITLE4=Howlin' Wolf - Spoonful
TTITLE5=Memphis Slim - Feelin' Low
TTITLE6=Lightning Hopkins - Coffee For Mama
TTITLE7=John Mayall - A Big Man
TTITLE8=Eric Clapton - Draggin' My Tail
TTITLE9=Little Walter - Roller Coaster
TTITLE10=Bo Diddley - I'm Looking For A Woman
TTITLE11=Canned Heat - Big Road Blues
TTITLE12=Little Milton - We're Gonna Make It
TTITLE13=Sonny Boy Williamson - Got To Move
EXTD=Year: 1994
EXTT0=
EXTT1=
EXTT2=
EXTT3=
EXTT4=
EXTT5=
EXTT6=
EXTT7=
EXTT8=
EXTT9=
EXTT10=
EXTT11=
EXTT12=
EXTT13=
PLAYORDER=
